<svg width="300" height="219" viewBox="0 0 300 219" fill="none" xmlns="http://www.w3.org/2000/svg">
<path d="M102.273 219C73.8637 219 49.7159 209.019 29.8296 189.058C9.94317 169.098 0 144.86 0 116.344C0 87.828 9.94317 63.5898 29.8296 43.6288C49.7159 23.668 73.8637 13.6875 102.273 13.6875C114.091 13.6875 125.227 15.5695 135.681 19.3336C146.137 23.0976 155.682 28.2874 164.319 34.9031L171.75 40.8894L176.927 46.0872L183.409 54.0656C190 62.7343 195.17 72.3727 198.921 82.9804C202.67 93.5885 204.545 104.709 204.545 116.344C204.545 144.86 194.602 169.098 174.716 189.058C154.83 209.019 130.682 219 102.273 219ZM238.636 219V52.0125L223.636 67.0687L204.545 47.9062L252.273 0L300 47.9062L280.568 67.0687L265.909 52.3546V219H238.636ZM102.273 191.625C123.182 191.625 140.909 184.325 155.455 169.725C170 155.125 177.273 137.331 177.273 116.344C177.273 95.3566 170 77.5624 155.455 62.9625C140.909 48.3625 123.182 41.0625 102.273 41.0625C81.3637 41.0625 63.6364 48.3625 49.0909 62.9625C34.5455 77.5624 27.2727 95.3566 27.2727 116.344C27.2727 137.331 34.5455 155.125 49.0909 169.725C63.6364 184.325 81.3637 191.625 102.273 191.625ZM88.6364 130.031H115.909V61.5937H88.6364V130.031Z" fill="#1F1F1F"/>
</svg>
