<svg width="300" height="224" viewBox="0 0 300 224" fill="none" xmlns="http://www.w3.org/2000/svg">
<path d="M102.273 224C73.8636 224 49.7159 213.792 29.8295 193.375C9.94318 172.958 0 148.167 0 119C0 89.8333 9.94318 65.0417 29.8295 44.625C49.7159 24.2083 73.8636 14 102.273 14C114.091 14 125.227 15.925 135.682 19.775C146.136 23.625 155.682 28.9333 164.318 35.7L172.188 42.7119L178.659 49.3559L183.409 55.3C190 64.1667 195.17 74.025 198.92 84.875C202.67 95.725 204.545 107.1 204.545 119C204.545 148.167 194.602 172.958 174.716 193.375C154.83 213.792 130.682 224 102.273 224ZM252.273 224L204.545 175L223.636 155.4L238.636 170.8V0H265.909V170.45L280.568 155.4L300 175L252.273 224ZM102.273 196C123.182 196 140.909 188.533 155.455 173.6C170 158.667 177.273 140.467 177.273 119C177.273 97.5333 170 79.3333 155.455 64.4C140.909 49.4667 123.182 42 102.273 42C81.3636 42 63.6364 49.4667 49.0909 64.4C34.5455 79.3333 27.2727 97.5333 27.2727 119C27.2727 140.467 34.5455 158.667 49.0909 173.6C63.6364 188.533 81.3636 196 102.273 196ZM88.6364 133H115.909V63H88.6364V133Z" fill="#1F1F1F"/>
</svg>
